<?xml version="1.0" encoding="UTF-8"?>
<svg id="Capa_2" data-name="Capa 2" xmlns="http://www.w3.org/2000/svg" viewBox="0 0 144.1 155">
  <defs>
    <style>
      .cls-1 {
        fill: #704f9a;
      }

      .cls-2 {
        fill: #3ab39a;
      }

      .cls-3 {
        fill: #3d4394;
      }
    </style>
  </defs>
  <g id="Capa_1-2" data-name="Capa 1">
    <path class="cls-3" d="M72.13,0l18.24,18.16c4.12,4.1,4.11,10.77,0,14.87l-42.21,41.94c-1.22,1.21-1.23,3.19,0,4.41l42.31,42.4c4.08,4.09,4.09,10.71,0,14.8l-18.33,18.41L3.89,86.61c-5.2-5.21-5.18-13.64.04-18.83L72.13,0Z"/>
    <path class="cls-1" d="M84.71,90.48l10.92-10.97c1.21-1.22,1.21-3.19,0-4.4l-10.82-10.78c-4.12-4.1-4.11-10.77,0-14.87l18.44-18.33,36.93,36.79c5.2,5.18,5.22,13.6.04,18.8l-36.97,37.14-18.53-18.57c-4.08-4.09-4.09-10.71,0-14.8"/>
    <path class="cls-2" d="M72.13,62.22l-12.83,12.75c-1.22,1.21-1.23,3.19,0,4.41l12.84,12.87,12.81-12.87c1.21-1.22,1.21-3.19,0-4.4l-12.8-12.75Z"/>
  </g>
</svg>

